<svg width="18" height="18" viewBox="0 0 18 18" fill="none" xmlns="http://www.w3.org/2000/svg">
<g clip-path="url(#clip0_18612_107)">
<path d="M17.6223 6.78C17.5053 6.42 17.213 6.15 16.8623 6.09L11.981 5.31L9.78877 0.57C9.61339 0.21 9.29187 0 8.91188 0C8.5319 0 8.21038 0.21 8.06423 0.57L5.87202 5.34L0.961473 6.15C0.610719 6.21 0.318425 6.48 0.201507 6.84C0.0845891 7.2 0.172277 7.62 0.435343 7.89L3.97211 11.61L3.15368 16.8C3.09522 17.19 3.24137 17.58 3.56289 17.82C3.73827 17.94 3.91365 18 4.08902 18C4.23517 18 4.41055 17.97 4.52747 17.88L8.91188 15.42L13.2671 17.85C13.5886 18.03 13.9686 18 14.2609 17.79C14.5824 17.55 14.7285 17.16 14.6701 16.77L13.8517 11.55L17.3884 7.83C17.6515 7.56 17.7392 7.14 17.6223 6.78ZM16.95 7.41L13.4424 11.13C13.3255 11.25 13.2671 11.46 13.2963 11.64L14.1147 16.86C14.144 17.07 14.0563 17.22 13.9393 17.28C13.8809 17.31 13.7347 17.4 13.5594 17.31L9.17495 14.88C8.99957 14.79 8.82419 14.79 8.64882 14.88L4.2644 17.34C4.08902 17.43 3.94288 17.37 3.88442 17.31C3.79673 17.25 3.67981 17.07 3.70904 16.89L4.5567 11.7C4.58593 11.52 4.52747 11.31 4.41055 11.19L0.873784 7.47C0.727637 7.32 0.727637 7.14 0.756867 7.02C0.815325 6.87 0.903014 6.78 1.04916 6.75L5.95971 5.94C6.13509 5.91 6.31046 5.79 6.36892 5.61L8.56113 0.84C8.64882 0.69 8.76574 0.6 8.91188 0.6C9.05803 0.6 9.17495 0.69 9.23341 0.84L11.4256 5.61C11.5133 5.79 11.6595 5.91 11.8348 5.94L16.7161 6.72C16.8623 6.75 16.9792 6.84 17.0084 6.99C17.0961 7.08 17.0961 7.29 16.95 7.41Z" fill="#52503B"/>
</g>
<defs>
<clipPath id="clip0_18612_107">
<rect width="17.5377" height="18" fill="white" transform="translate(0.150696)"/>
</clipPath>
</defs>
</svg>
