<svg width="53" height="49" viewBox="0 0 53 49" fill="none" xmlns="http://www.w3.org/2000/svg">
<g clip-path="url(#clip0_13078_46)">
<path d="M2.67993 0.5H50.6799V48.5H2.67993V0.5Z" fill="#45525B"/>
<g clip-path="url(#clip1_13078_46)">
<path d="M39.0829 22.5301L39.1219 22.4918C39.1219 22.4918 39.1219 22.4536 39.1609 22.4153C39.1609 22.377 39.1609 22.377 39.2 22.3388V22.3005C39.2 22.2623 39.2 22.2623 39.2 22.224V22.1858V22.1475C39.2 22.1475 39.2 22.1475 39.2 22.1093C38.3804 17.4809 33.2292 14 27.1804 14C21.1317 14 15.9804 17.4809 15.2 22.071C15.2 22.071 15.2 22.071 15.2 22.1093V22.1475V22.1858C15.2 22.224 15.2 22.224 15.2 22.2623C15.2 22.3005 15.2 22.3005 15.2 22.3388C15.2 22.377 15.2 22.377 15.239 22.4153C15.239 22.4536 15.239 22.4536 15.278 22.4918C15.278 22.5301 15.317 22.5301 15.317 22.5683L15.356 22.6066L15.3951 22.6448L15.4341 22.6831L15.4731 22.7213L15.5121 22.7596C15.5121 22.7596 15.5512 22.7978 15.5902 22.7978C15.5902 22.7978 15.6292 22.8361 15.6682 22.8361C15.6682 22.8361 15.7073 22.8361 15.7463 22.8361C15.7853 22.8361 15.7853 22.8361 15.8243 22.8361H15.8634H15.9024H18.3219V33.5847H17.6975C17.3073 33.5847 16.9951 33.8907 16.9951 34.2732C16.9951 34.6557 17.3073 34.9617 17.6975 34.9617H24.3317C24.7219 34.9617 25.0341 34.6557 25.0341 34.2732C25.0341 33.8907 24.7219 33.5847 24.3317 33.5847H23.7463V22.8743H30.6926V33.623H30.0292C29.639 33.623 29.3268 33.929 29.3268 34.3115C29.3268 34.694 29.639 35 30.0292 35H36.6634C37.0536 35 37.3658 34.694 37.3658 34.3115C37.3658 33.929 37.0536 33.623 36.6634 33.623H36.156V22.8743H38.4975C38.5365 22.8743 38.5756 22.8743 38.6146 22.8743C38.6536 22.8743 38.6536 22.8743 38.6926 22.8743C38.7317 22.8743 38.7317 22.8743 38.7707 22.8743C38.8097 22.8743 38.8097 22.8743 38.8487 22.8361C38.8878 22.8361 38.8878 22.7978 38.9268 22.7978L38.9658 22.7596L39.0048 22.7213L39.0439 22.6831L39.0829 22.6448C39.0829 22.5683 39.0829 22.5683 39.0829 22.5301ZM27.1804 15.3388C32.2146 15.3388 36.5463 17.9781 37.639 21.5738H16.7219C17.8146 17.9399 22.1463 15.3388 27.1804 15.3388ZM22.3804 33.623H19.6487V22.8743H22.3804V33.623ZM34.7902 33.623H32.0585V22.8743H34.7902V33.623Z" fill="white"/>
</g>
</g>
<defs>
<clipPath id="clip0_13078_46">
<rect width="51.84" height="48" fill="white" transform="translate(0.679932 0.5)"/>
</clipPath>
<clipPath id="clip1_13078_46">
<rect width="24" height="24" fill="white" transform="translate(15.2 12.5)"/>
</clipPath>
</defs>
</svg>
