<svg width="53" height="49" viewBox="0 0 53 49" fill="none" xmlns="http://www.w3.org/2000/svg">
<g clip-path="url(#clip0_13078_13)">
<path d="M2.67993 0.5H50.6799V48.5H2.67993V0.5Z" fill="#45525B"/>
<g clip-path="url(#clip1_13078_13)">
<path d="M18.3812 27.0813C18.7319 26.9236 19.1215 27.0813 19.2773 27.436C19.4332 27.7906 19.2773 28.1847 18.9267 28.3424C17.1345 29.1305 16.0825 30.1158 16.0825 31.0616C16.0825 32.9926 20.4072 35.1601 26.6799 35.1601C32.9527 35.1601 37.3163 32.9926 37.2773 31.0616C37.2773 30.1158 36.2643 29.1305 34.5111 28.3818C34.1605 28.2241 34.0046 27.83 34.1605 27.4754C34.3163 27.1207 34.7059 26.9631 35.0566 27.1207C37.3942 28.1453 38.6799 29.5246 38.6799 31.0616C38.6799 34.1355 33.5371 36.5 26.6799 36.5C19.8228 36.5 14.6799 34.1749 14.6799 31.0616C14.6799 29.5246 16.0046 28.1059 18.3812 27.0813ZM26.6799 12.5C31.0046 12.5 34.5111 16.0468 34.5111 20.4212C34.5111 23.6921 30.4202 28.8153 27.9656 31.5739C27.654 31.968 27.1864 32.165 26.6799 32.165C26.1734 32.165 25.7059 31.9286 25.3942 31.5739C22.9397 28.8153 18.8488 23.6921 18.8488 20.4212C18.8488 16.0468 22.3553 12.5 26.6799 12.5ZM26.6799 13.8793C23.1345 13.8793 20.2124 16.7956 20.2124 20.4212C20.2124 22.431 22.5501 26.2537 26.4072 30.6281C26.4851 30.7463 26.641 30.7463 26.6799 30.7463C26.7189 30.7463 26.8358 30.7463 26.9527 30.6281C30.8488 26.2537 33.1475 22.431 33.1475 20.4212C33.1475 16.7956 30.2254 13.8793 26.6799 13.8793Z" fill="white"/>
</g>
</g>
<defs>
<clipPath id="clip0_13078_13">
<rect width="51.84" height="48" fill="white" transform="translate(0.679932 0.5)"/>
</clipPath>
<clipPath id="clip1_13078_13">
<rect width="24" height="24" fill="white" transform="translate(14.6799 12.5)"/>
</clipPath>
</defs>
</svg>
