<svg width="161" height="58" viewBox="0 0 161 58" fill="none" xmlns="http://www.w3.org/2000/svg">
<g clip-path="url(#clip0_13078_76)">
<path fill-rule="evenodd" clip-rule="evenodd" d="M90.7417 38.5332C92.9607 38.5332 94.7309 39.0944 96.0538 40.2176C97.376 41.3407 98.1045 42.8554 98.2393 44.761H93.7336C93.6666 44.0117 93.3584 43.4166 92.8099 42.9749C92.2599 42.5317 91.5255 42.3112 90.6077 42.3112C89.7553 42.3112 89.0997 42.469 88.64 42.7876C88.1811 43.1047 87.9509 43.5479 87.9509 44.1142C87.9509 44.7499 88.2656 45.2322 88.8921 45.5618C89.52 45.89 90.4955 46.2248 91.8184 46.5655C93.1632 46.9047 94.2727 47.2579 95.1469 47.6208C96.021 47.9836 96.7757 48.544 97.4146 49.3044C98.0535 50.0647 98.3842 51.0691 98.4068 52.3168C98.4068 53.4053 98.1096 54.3817 97.5159 55.2445C96.9222 56.1058 96.0698 56.7813 94.9604 57.2687C93.8509 57.7562 92.5571 57.9996 91.0783 57.9996C89.5528 57.9996 88.1862 57.7215 86.9769 57.1662C85.7662 56.6109 84.8075 55.8565 84.1016 54.9038C83.3957 53.951 83.0096 52.8957 82.9411 51.7379H87.6828C87.7717 52.465 88.125 53.0661 88.7413 53.5424C89.3568 54.0188 90.1247 54.257 91.044 54.257C91.9401 54.257 92.6416 54.0756 93.145 53.7128C93.6498 53.35 93.9019 52.8846 93.9019 52.3168C93.9019 51.7047 93.5937 51.2446 92.9767 50.9385C92.3611 50.631 91.3806 50.2977 90.0358 49.9349C88.6458 49.5942 87.5087 49.2424 86.6243 48.8796C85.7377 48.5168 84.9757 47.96 84.3369 47.2122C83.698 46.463 83.3789 45.4534 83.3789 44.1821C83.3789 43.1393 83.6761 42.1865 84.2698 41.3237C84.8636 40.4609 85.7159 39.781 86.8254 39.281C87.9348 38.7825 89.2396 38.5332 90.7417 38.5332ZM118.579 38.5337C119.967 38.5337 121.184 38.8176 122.226 39.384C123.269 39.9518 124.103 40.6664 124.731 41.5277V38.8397H129.471V57.694H124.731V54.9367C124.126 55.8216 123.29 56.5539 122.226 57.1313C121.162 57.7102 119.934 58 118.544 58C116.975 58 115.547 57.5915 114.259 56.7744C112.969 55.9588 111.949 54.8069 111.198 53.3209C110.447 51.835 110.073 50.127 110.073 48.1979C110.073 46.2923 110.447 44.6028 111.198 43.1272C111.949 41.6538 112.969 40.5196 114.259 39.7247C115.547 38.9312 116.986 38.5337 118.579 38.5337ZM151.222 38.5333C152.992 38.5333 154.579 38.9183 155.979 39.6896C157.379 40.461 158.467 41.5568 159.241 42.9749C160.014 44.393 160.4 46.0198 160.4 47.859C160.4 48.539 160.355 49.151 160.266 49.6967H146.65C146.762 51.0581 147.233 52.1244 148.062 52.8958C148.891 53.6671 149.911 54.0521 151.121 54.0521C152.869 54.0521 154.114 53.2933 154.853 51.7727H159.929C159.392 53.5882 158.36 55.0793 156.836 56.2482C155.312 57.417 153.441 57.9996 151.222 57.9996C149.428 57.9996 147.821 57.597 146.397 56.7924C144.974 55.9864 143.865 54.8471 143.069 53.3722C142.274 51.8973 141.876 50.1953 141.876 48.2661C141.876 46.3163 142.267 44.6032 143.053 43.1269C143.836 41.6534 144.935 40.5192 146.347 39.7243C147.759 38.9308 149.385 38.5333 151.222 38.5333ZM81.6974 33.9039V37.7844H72.788V43.7407H80.6899V47.5179H72.788V53.8135H81.6974V57.6939H68.082V33.9039H81.6974ZM105.736 34.1766V38.8395H109.905V42.7531H105.736V51.8746C105.736 52.5095 105.887 52.9689 106.189 53.2528C106.492 53.5368 107.002 53.6776 107.72 53.6776H109.905V57.6937H106.945C102.978 57.6937 100.994 55.7425 100.994 51.8406V42.7531H98.7755V38.8395H100.994V34.1766H105.736ZM137.541 34.1766V38.8395H141.709V42.7531H137.541V51.8746C137.541 52.5095 137.691 52.9689 137.994 53.2528C138.297 53.5368 138.806 53.6776 139.524 53.6776H141.709V57.6937H138.75C134.783 57.6937 132.799 55.7425 132.799 51.8406V42.7531H130.58V38.8395H132.799V34.1766H137.541ZM119.788 42.7202C118.914 42.7202 118.108 42.9347 117.368 43.3669C116.628 43.7976 116.029 44.4273 115.569 45.254C115.11 46.0836 114.88 47.0637 114.88 48.1979C114.88 49.3336 115.11 50.3254 115.569 51.1772C116.029 52.0274 116.634 52.6793 117.385 53.1336C118.136 53.5879 118.937 53.8135 119.788 53.8135C120.662 53.8135 121.48 53.5938 122.244 53.1506C123.004 52.7088 123.61 52.0732 124.059 51.245C124.506 50.4169 124.731 49.4235 124.731 48.2657C124.731 47.1094 124.506 46.1168 124.059 45.2887C123.61 44.4605 123.004 43.8248 122.244 43.3831C121.48 42.9399 120.662 42.7202 119.788 42.7202ZM151.088 42.4469C149.922 42.4469 148.942 42.8046 148.145 43.5192C147.351 44.2338 146.863 45.2264 146.683 46.4962H155.526C155.502 45.2721 155.066 44.2905 154.214 43.5538C153.363 42.8156 152.32 42.4469 151.088 42.4469Z" fill="white"/>
<path fill-rule="evenodd" clip-rule="evenodd" d="M33.1194 0L56.769 23.995V57.694H51.2813V26.2928L29.2352 3.93205L33.1194 0ZM17.6045 15.7276L34.8084 33.1874V57.6941H0.399902V33.1874L17.6045 15.7276ZM25.3618 7.86374L45.7943 28.5911V57.6936H40.3067V30.889L21.4884 11.7958L25.3618 7.86374Z" fill="white"/>
</g>
<defs>
<clipPath id="clip0_13078_76">
<rect width="160" height="58" fill="white" transform="translate(0.399902)"/>
</clipPath>
</defs>
</svg>
