<svg width="53" height="49" viewBox="0 0 53 49" fill="none" xmlns="http://www.w3.org/2000/svg">
<g clip-path="url(#clip0_13078_64)">
<path d="M2.67993 0.5H50.6799V48.5H2.67993V0.5Z" fill="#45525B"/>
<g clip-path="url(#clip1_13078_64)">
<path d="M33.0017 27.5244C33.0017 26.3146 32.0101 25.339 30.7807 25.339H30.5031L31.4152 18.0415V18.0024C31.4946 16.5585 30.979 15.1927 29.9478 14.139C28.9167 13.0854 27.5682 12.5 26.1008 12.5C24.6334 12.5 23.2453 13.0854 22.2538 14.139C21.2226 15.1927 20.707 16.5585 20.7864 18.0024V18.0415L21.6985 25.339H21.4209C20.1915 25.339 19.2 26.3146 19.2 27.5244V29.2024C19.2 29.7878 19.4379 30.3341 19.8345 30.7244V35.7976C19.8345 36.1878 20.1518 36.5 20.5484 36.5C20.945 36.5 21.2623 36.1878 21.2623 35.7976V31.3878C21.3416 31.3878 21.4209 31.3878 21.4606 31.3878H23.1263V34.7049C23.1263 35.0951 23.4436 35.4073 23.8402 35.4073C24.2368 35.4073 24.5541 35.0951 24.5541 34.7049V31.3878H27.8458V34.7049C27.8458 35.0951 28.1631 35.4073 28.5597 35.4073C28.9563 35.4073 29.2736 35.0951 29.2736 34.7049V31.3878H30.9393C31.0186 31.3878 31.098 31.3878 31.1376 31.3878V35.7976C31.1376 36.1878 31.4549 36.5 31.8515 36.5C32.2481 36.5 32.5654 36.1878 32.5654 35.7976V30.7634C32.962 30.3732 33.2 29.8268 33.2 29.2415V27.5244H33.0017ZM22.0951 17.8854C22.0555 16.8317 22.4521 15.8171 23.166 15.0366C23.9195 14.2561 24.9507 13.8268 26.0215 13.8268C27.132 13.8268 28.1235 14.2561 28.877 15.0366C29.6305 15.8171 30.0271 16.8317 29.9478 17.8854L29.0356 25.3H23.047L22.0951 17.8854ZM21.3813 30.061C21.2226 30.061 21.064 30.022 20.945 29.9439C20.9053 29.9049 20.8657 29.9049 20.826 29.8659C20.6277 29.7098 20.5087 29.4756 20.5087 29.2415V27.5634C20.5087 27.0951 20.9053 26.7439 21.3416 26.7439H22.3728H29.6702H30.7014C31.1773 26.7439 31.5342 27.1341 31.5342 27.5634V29.2415C31.5342 29.5146 31.4152 29.7098 31.2169 29.8659C31.1773 29.9049 31.1376 29.9049 31.098 29.9439C30.979 30.022 30.8203 30.061 30.6617 30.061H21.3813Z" fill="white"/>
</g>
</g>
<defs>
<clipPath id="clip0_13078_64">
<rect width="51.84" height="48" fill="white" transform="translate(0.679932 0.5)"/>
</clipPath>
<clipPath id="clip1_13078_64">
<rect width="24" height="24" fill="white" transform="translate(14.2 12.5)"/>
</clipPath>
</defs>
</svg>
