<svg width="128" height="102" viewBox="0 0 128 102" fill="none" xmlns="http://www.w3.org/2000/svg">
<path fill-rule="evenodd" clip-rule="evenodd" d="M31.4178 75.2625C34.4941 75.2625 36.9486 76.0331 38.7829 77.5759C40.6172 79.118 41.6257 81.1994 41.814 83.8159H35.5656C35.4732 82.7874 35.0463 81.9694 34.2857 81.3624C33.5229 80.7541 32.5044 80.4517 31.2316 80.4517C30.0498 80.4517 29.1416 80.6686 28.5042 81.106C27.8667 81.5413 27.5487 82.1504 27.5487 82.9282C27.5487 83.8009 27.9849 84.4631 28.853 84.9156C29.7239 85.3666 31.0762 85.827 32.9105 86.2946C34.7748 86.7607 36.3133 87.2455 37.5252 87.744C38.7371 88.2424 39.7842 89.0124 40.6702 90.0567C41.5555 91.101 42.0146 92.48 42.0454 94.1938C42.0454 95.6884 41.6335 97.0294 40.8106 98.2145C39.9869 99.3974 38.8058 100.326 37.2674 100.995C35.7289 101.665 33.9347 102 31.8841 102C29.7698 102 27.8746 101.617 26.1979 100.855C24.519 100.092 23.1897 99.0555 22.2106 97.7469C21.2322 96.4383 20.6972 94.9889 20.6027 93.3987H27.1763C27.3002 94.397 27.7894 95.223 28.6446 95.8773C29.4983 96.5316 30.5627 96.8584 31.8368 96.8584C33.0795 96.8584 34.0522 96.6092 34.7505 96.1107C35.4503 95.613 35.7991 94.9738 35.7991 94.1938C35.7991 93.3527 35.3722 92.7214 34.517 92.3012C33.6632 91.8789 32.3038 91.4206 30.4387 90.9222C28.5121 90.4546 26.9356 89.9712 25.7087 89.4728C24.4796 88.9743 23.4232 88.2101 22.5372 87.183C21.6512 86.1538 21.2093 84.7676 21.2093 83.0209C21.2093 81.5887 21.6211 80.2801 22.4441 79.0957C23.2678 77.9106 24.4488 76.9769 25.9873 76.2903C27.5258 75.6051 29.335 75.2625 31.4178 75.2625ZM70.0143 75.2627C71.9395 75.2627 73.6255 75.6528 75.0709 76.4306C76.5163 77.2106 77.6737 78.1917 78.5439 79.3747V75.6829H85.1161V101.58H78.5439V97.7924C77.7059 99.0077 76.5471 100.014 75.0709 100.807C73.5954 101.602 71.8944 102 69.967 102C67.7918 102 65.8114 101.439 64.0244 100.316C62.2359 99.1959 60.8228 97.6136 59.7814 95.5731C58.74 93.5318 58.2207 91.1868 58.2207 88.5372C58.2207 85.92 58.74 83.5993 59.7814 81.5717C60.8228 79.5478 62.2359 77.9906 64.0244 76.8989C65.8114 75.8086 67.8068 75.2627 70.0143 75.2627ZM115.275 75.2629C117.729 75.2629 119.929 75.7915 121.871 76.8509C123.811 77.9103 125.32 79.415 126.393 81.3629C127.465 83.31 128 85.5452 128 88.0712C128 89.0049 127.937 89.846 127.814 90.5951H108.935C109.091 92.4647 109.744 93.9292 110.893 94.9886C112.042 96.048 113.458 96.5773 115.134 96.5773C117.558 96.5773 119.284 95.5344 120.308 93.4465H127.348C126.602 95.9395 125.172 97.9886 123.059 99.5939C120.946 101.199 118.351 102 115.275 102C112.788 102 110.559 101.446 108.585 100.341C106.612 99.2341 105.074 97.669 103.97 95.6429C102.868 93.6175 102.316 91.2796 102.316 88.63C102.316 85.9524 102.859 83.5995 103.947 81.5719C105.034 79.5479 106.557 77.99 108.516 76.8983C110.474 75.8087 112.727 75.2629 115.275 75.2629ZM18.8786 68.9045V74.2338H6.52493V82.4145H17.4805V87.6031H6.52493V96.2499H18.8786V101.579H0V68.9045H18.8786ZM52.2079 69.2793V75.6831H57.9872V81.0583H52.2079V93.5873C52.2079 94.4585 52.4163 95.0898 52.836 95.4798C53.2564 95.8698 53.9626 96.0638 54.9582 96.0638H57.9872V101.579H53.8846C48.3839 101.579 45.6335 98.8994 45.6335 93.5392V81.0583H42.5573V75.6831H45.6335V69.2793H52.2079ZM96.3052 69.2793V75.6831H102.085V81.0583H96.3052V93.5873C96.3052 94.4585 96.5136 95.0898 96.9333 95.4798C97.3538 95.8698 98.06 96.0638 99.0555 96.0638H102.085V101.579H97.9819C92.4812 101.579 89.7308 98.8994 89.7308 93.5392V81.0583H86.6546V75.6831H89.7308V69.2793H96.3052ZM71.691 81.013C70.4791 81.013 69.3618 81.3074 68.3361 81.9007C67.3097 82.4925 66.4789 83.358 65.8414 84.4935C65.204 85.6327 64.886 86.9794 64.886 88.5372C64.886 90.0965 65.204 91.4583 65.8414 92.6283C66.4789 93.7962 67.3176 94.6918 68.3583 95.3159C69.3997 95.9401 70.5113 96.2496 71.691 96.2496C72.9036 96.2496 74.0374 95.9473 75.096 95.3389C76.1503 94.732 76.9904 93.8594 77.6128 92.7217C78.2331 91.584 78.5439 90.2208 78.5439 88.6306C78.5439 87.0418 78.2331 85.6786 77.6128 84.5409C76.9904 83.4033 76.1503 82.5306 75.096 81.9237C74.0374 81.3153 72.9036 81.013 71.691 81.013ZM115.088 80.6382C113.473 80.6382 112.112 81.1287 111.009 82.1098C109.906 83.0917 109.23 84.4556 108.981 86.1995H121.242C121.209 84.5181 120.604 83.1692 119.422 82.158C118.243 81.1438 116.797 80.6382 115.088 80.6382Z" fill="#45525B"/>
<path fill-rule="evenodd" clip-rule="evenodd" d="M68.4587 0L91.7107 23.37V56.1913H86.3152V25.608L64.6397 3.82964L68.4587 0ZM53.2046 15.318L70.1193 32.323V56.1915H36.2892V32.323L53.2046 15.318ZM60.8315 7.65893L80.9205 27.8464V56.191H75.5251V30.0845L57.0233 11.4886L60.8315 7.65893Z" fill="#FF8A63"/>
</svg>
